<?xml version="1.0" encoding="UTF-8"?>
<svg id="Layer_1" xmlns="http://www.w3.org/2000/svg" xmlns:xlink="http://www.w3.org/1999/xlink" version="1.1" viewBox="0 0 2229 351.9">
  <!-- Generator: Adobe Illustrator 29.6.0, SVG Export Plug-In . SVG Version: 2.1.1 Build 207)  -->
  <defs>
    <style>
      .st0 {
        fill: url(#_무제_그라디언트);
      }

      .st1 {
        fill: url(#_무제_그라디언트_2);
      }

      .st2 {
        fill: #fff;
      }

      .st3 {
        fill: #378cff;
      }
    </style>
    <linearGradient id="_무제_그라디언트" data-name="무제 그라디언트" x1="62" y1="206.5" x2="62" y2="354" gradientTransform="translate(0 354) scale(1 -1)" gradientUnits="userSpaceOnUse">
      <stop offset="0" stop-color="#378cff"/>
      <stop offset="1" stop-color="#37c8ff"/>
    </linearGradient>
    <linearGradient id="_무제_그라디언트_2" data-name="무제 그라디언트 2" x1="134" y1="2.1" x2="134" y2="206.5" gradientTransform="translate(0 354) scale(1 -1)" gradientUnits="userSpaceOnUse">
      <stop offset="0" stop-color="#9137ff"/>
      <stop offset="1" stop-color="#646eff"/>
    </linearGradient>
  </defs>
  <g>
    <path class="st0" d="M76.3,147.5H0C12.3,86.7,40.4,34.7,78,0l46,66.8c-21,19.1-37.8,47.2-47.7,80.7Z"/>
    <path class="st3" d="M110,217c6.3-21.3,9.8-44.8,9.8-69.5h-43.5c-6.3,21.3-9.8,44.8-9.8,69.5h43.5Z"/>
    <path class="st1" d="M193.3,147.5h-73.5c0,24.7-3.5,48.2-9.8,69.5-7.8,26.6-20,49.8-35.3,67.8l46.1,67.1c31.3-34.1,54.6-81,65.5-134.9,4.5-22.1,7-45.4,7-69.5Z"/>
  </g>
  <g>
    <path class="st2" d="M336.7,252.2v-39.4c15.1,10.1,31.8,15.1,50.4,15.1s24.1-6.8,24.1-18.9-8.5-17.8-27.1-23.5l-5.2-1.6c-29.3-9.3-44.4-27.9-44.4-55s23-53.1,58.9-53.1,31.8,3,49.8,11.2v39.4c-15.9-9.9-30.4-15.1-46.8-15.1s-22.7,5.2-22.7,16.4,7.9,16.2,24.4,21.4l5.2,1.6c31.2,9.6,47.1,27.9,47.1,53.7s-23.5,59.1-61.1,59.1-35.9-3.3-52.6-11.2Z"/>
    <path class="st2" d="M484,227.9v-63.5h-16.4v-33.4h16.4v-33.7h37.2v33.7h23v33.4h-23v51.8c0,7.9,4.9,12.3,11.5,12.3s7.4-.8,11.5-2.7v32c-7.9,3.3-18.3,4.7-26.6,4.7-21.6,0-33.7-12-33.7-34.5Z"/>
    <path class="st2" d="M561.8,195c0-40.3,23.3-66.8,61.1-66.8s57.2,23.3,57.2,71.2v9h-80.2c1.1,14,13.4,22.7,33.4,22.7s27.9-4.1,43-12.3v34c-16.2,6.3-32.9,9.6-48.5,9.6-41.1,0-66-25.5-66-67.4ZM599.8,181h43c0-13.7-7.4-22.7-20.3-22.7s-22.2,9.3-22.7,22.7Z"/>
    <path class="st2" d="M701.4,63.6h37.2v196.1h-37.2V63.6Z"/>
    <path class="st2" d="M764.9,63.6h37.2v196.1h-37.2V63.6Z"/>
    <path class="st2" d="M824.1,224.9c0-24.6,16.2-38.9,49.3-44.6l23.5-4.1v-2.7c0-8.8-8.2-13.4-24.4-13.4s-30.1,4.7-42.7,11.5v-35.1c15.1-4.9,34.2-9.9,48.5-9.9,37,0,55.9,16.7,55.9,45.7v87.4h-34.2l-2.7-17c-6.8,12.3-20,19.7-34.2,19.7-23.3,0-38.9-14.5-38.9-37.5ZM896.9,218.8v-17.5l-18.9,3.3c-10.7,1.9-17.3,7.1-17.3,15.9s5.8,12.3,15.1,12.3,18.1-5.5,21.1-14Z"/>
    <path class="st2" d="M1018,79.5h38.3v180.2h-38.3V79.5Z"/>
    <path class="st2" d="M1134.1,115.6h-54.8v-36.1h147.9v36.1h-54.8v144h-38.3V115.6Z"/>
  </g>
  <g>
    <path class="st2" d="M1345.5,181.2c0-51.2,35.2-86,85-86s84.8,34,84.8,86-34.2,86-84.8,86-85-35-85-86ZM1493.7,181.2c0-40-25.8-66.5-63.2-66.5s-63.5,26.5-63.5,66.5,26,66.5,63.5,66.5,63.2-26.5,63.2-66.5Z"/>
    <path class="st2" d="M1543,147h20.2v13.8c7-10.5,19.8-16.2,33.8-16.2,29,0,48.5,23.2,48.5,58.5s-22.5,63-55.2,63-19-2.5-27-6.5v57h-20.2v-169.5ZM1625,204.5c0-25.8-12.8-42-33.8-42s-22,5.5-28,14.2v64.5c7.8,4.5,15.8,7,25.2,7,21.5,0,36.5-16.8,36.5-43.8Z"/>
    <path class="st2" d="M1666.2,205c0-36.2,21-60.5,53.8-60.5s50.8,20.8,50.8,58.8v7.5h-83.5c.2,23.2,14.5,37.8,39.5,37.8s27.2-4.8,41-14v19.5c-14.2,8-28.8,12-43.2,12-37,0-58.2-23-58.2-61ZM1687.2,195h63c0-20.8-11.2-33.5-30.5-33.5s-31.2,13.2-32.5,33.5Z"/>
    <path class="st2" d="M1796.7,147h20.2v15.8c8.5-11.5,21-18.2,35-18.2,25.5,0,39.8,16.2,39.8,43v76h-20.5v-72.5c0-18.5-9.2-28-25-28s-22.5,6.8-29.2,17.2v83.2h-20.2v-116.5Z"/>
    <path class="st2" d="M1977,97.5h19.8l65.5,166h-22.8l-18.8-49.2h-69l-18.8,49.2h-21.5l65.5-166ZM2013.7,195.7l-21-54.2-6.5-18.8-6.8,18.8-20.8,54.2h55Z"/>
    <path class="st2" d="M2085.2,99h34c39,0,61.2,20.5,61.2,52.8s-22.2,52.8-61,52.8h-13.2v59h-21V99ZM2120.2,185.5c23.5,0,38.8-12,38.8-33.8s-15.2-33.2-39-33.2h-13.8v67h14Z"/>
    <path class="st2" d="M2208,99h21v164.5h-21V99Z"/>
  </g>
</svg>